<svg width="28.8" height="24" viewBox="0 0 28.8 24">
  <g  data-name="Group 73" transform="translate(-1955.5 -2291)">
    <path  data-name="Path 24" d="M10.762,15.1H4.974a.5.5,0,0,0-.474.5V38.165a.5.5,0,0,0,.474.5h5.82a.5.5,0,0,0,.474-.5V15.632A.513.513,0,0,0,10.762,15.1ZM10,35.606a.14.14,0,0,1-.127.133H6.05a.14.14,0,0,1-.127-.133V35.24a.14.14,0,0,1,.127-.133H9.877A.14.14,0,0,1,10,35.24Zm0-15.155a.14.14,0,0,1-.127.133H6.05a.14.14,0,0,1-.127-.133v-.366a.14.14,0,0,1,.127-.133H9.877a.14.14,0,0,1,.127.133Zm0-1.329a.14.14,0,0,1-.127.133H6.05a.14.14,0,0,1-.127-.133v-.366a.14.14,0,0,1,.127-.133H9.877a.14.14,0,0,1,.127.133Z" transform="translate(1951 2276.284)"/>
    <path  data-name="Path 25" d="M32.882,15.1H28.106a.513.513,0,0,0-.506.532V38.165a.513.513,0,0,0,.506.532h4.776a.513.513,0,0,0,.506-.532V15.632A.513.513,0,0,0,32.882,15.1Zm-.759,20.506a.14.14,0,0,1-.127.133H28.834a.14.14,0,0,1-.127-.133V35.24a.14.14,0,0,1,.127-.133H32a.14.14,0,0,1,.127.133Zm0-15.155a.14.14,0,0,1-.127.133H28.834a.14.14,0,0,1-.127-.133v-.366a.14.14,0,0,1,.127-.133H32a.14.14,0,0,1,.127.133Zm0-1.329a.14.14,0,0,1-.127.133H28.834a.14.14,0,0,1-.127-.133v-.366a.14.14,0,0,1,.127-.133H32a.14.14,0,0,1,.127.133Z" transform="translate(1935.206 2276.284)"/>
    <path  data-name="Path 26" d="M62.68,34.634,53.665,14.261a.521.521,0,0,0-.7-.266l-5.124,2.493a.572.572,0,0,0-.253.731l9.014,20.406a.521.521,0,0,0,.7.266L62.427,35.4A.6.6,0,0,0,62.68,34.634ZM50.408,19.678l-.158-.332a.164.164,0,0,1,.063-.2l2.878-1.4a.148.148,0,0,1,.19.066l.158.332a.164.164,0,0,1-.063.2l-2.878,1.4A.138.138,0,0,1,50.408,19.678Zm3.574-.133-2.878,1.4a.148.148,0,0,1-.19-.066l-.158-.332a.164.164,0,0,1,.063-.2l2.878-1.4a.148.148,0,0,1,.19.066l.158.332A.164.164,0,0,1,53.982,19.545ZM60.054,33.3l-2.878,1.4a.148.148,0,0,1-.19-.066l-.158-.332a.164.164,0,0,1,.063-.2l2.878-1.4a.148.148,0,0,1,.19.066l.158.332A.164.164,0,0,1,60.054,33.3Z" transform="translate(1921.571 2277.057)"/>
  </g>
</svg>
